HIERARCHY
ROOT ui
{
	 OFFSET 0 0 0
	 CHANNELS 3 XPosition YPosition Z Position
	 EndSite
	 {
	 OFFSET 0 -1 0
	 }
}
ROOT li
{
	 OFFSET 0 0 0
	 CHANNELS 3 XPosition YPosition Z Position
	 EndSite
	 {
	 OFFSET 0 -1 0
	 }
}
ROOT ul
{
	 OFFSET 0 0 0
	 CHANNELS 3 XPosition YPosition Z Position
	 EndSite
	 {
	 OFFSET 0 -1 0
	 }
}
ROOT ll
{
	 OFFSET 0 0 0
	 CHANNELS 3 XPosition YPosition Z Position
	 EndSite
	 {
	 OFFSET 0 -1 0
	 }
}
ROOT tt
{
	 OFFSET 0 0 0
	 CHANNELS 3 XPosition YPosition Z Position
	 EndSite
	 {
	 OFFSET 0 -1 0
	 }
}
ROOT tb
{
	 OFFSET 0 0 0
	 CHANNELS 3 XPosition YPosition Z Position
	 EndSite
	 {
	 OFFSET 0 -1 0
	 }
}
ROOT td
{
	 OFFSET 0 0 0
	 CHANNELS 3 XPosition YPosition Z Position
	 EndSite
	 {
	 OFFSET 0 -1 0
	 }
}
ROOT v
{
	 OFFSET 0 0 0
	 CHANNELS 3 XPosition YPosition Z Position
	 EndSite
	 {
	 OFFSET 0 -1 0
	 }
}
ROOT bn
{
	 OFFSET 0 0 0
	 CHANNELS 3 XPosition YPosition Z Position
	 EndSite
	 {
	 OFFSET 0 -1 0
	 }
}
MOTION
Frames: 18
Frame Time: 0.002
0.0036889219284057615	4.127129912376404E-4	0		0.5283075561523437	-2.30750390625	0		-1.087134765625	0.022425439834594725	0		-0.63542578125	-2.367693359375	0		1.5916241455078124	-0.5591064453125	0		3.383924560546875	0.0031920790672302244	0		4.8302109375	0.021267671585083008	0		5.63404541015625	0.1697779998779297	0		-0.24611607360839843	5.9225224609375	0		
0.004120378017425537	4.53590989112854E-4	0		0.528806396484375	-2.30744775390625	0		-1.0826602783203125	0.026390291213989257	0		-0.6808125610351563	-2.35716650390625	0		1.5920718994140626	-0.5590191650390625	0		3.36029150390625	-0.0024043920040130616	0		4.83470751953125	0.02740521812438965	0		5.63435595703125	0.17012840270996094	0		-0.2269136199951172	5.91734765625	0		
5.207989811897278E-4	-0.003461442947387695	0		0.5272830810546875	-2.310369873046875	0		-1.0112760620117187	0.020622970581054688	0		-0.6483803100585938	-2.3644951171875	0		1.58545556640625	-0.5658561401367187	0		3.3517578125	-1.6985699534416199E-4	0		4.83108544921875	0.021627267837524413	0		5.63467626953125	0.17047071838378905	0		-0.24558148193359375	5.92258984375	0		
9.719899892807007E-4	-0.003421519994735718	0		0.5008318786621093	-2.307020751953125	0		-1.0817667236328126	0.026410654067993165	0		-0.7068609008789063	-2.363828369140625	0		1.5929981689453125	-0.5588497314453125	0		3.356033935546875	-0.016080894470214845	0		4.81952587890625	0.020930675506591796	0		5.63078369140625	0.18475486755371093	0		-0.27737811279296876	5.91497314453125	0		
0.008500136375427247	0.0035403521060943604	0		0.534386474609375	-2.303328857421875	0		-1.06134912109375	0.02320289421081543	0		-0.6673269653320313	-2.362233642578125	0		1.596508544921875	-0.5548021240234375	0		3.38976806640625	0.009684844017028809	0		4.84012890625	0.03487738418579102	0		5.64593115234375	0.1500799255371094	0		-0.24301840209960937	5.92063330078125	0		
0.008946418762207031	0.0035775759220123293	0		0.5328695068359375	-2.30525634765625	0		-1.076837158203125	0.029386680603027345	0		-0.6708749389648437	-2.367169677734375	0		1.596968994140625	-0.5547247314453125	0		3.328032958984375	-0.006517117977142334	0		4.83649853515625	0.028080806732177735	0		5.6285146484375	0.17161630249023438	0		-0.21063676452636718	5.92831591796875	0		
0.006346127033233642	6.454709768295288E-4	0		0.5313359985351562	-2.307186767578125	0		-1.08043798828125	0.0264390869140625	0		-0.6483757934570312	-2.366389892578125	0		1.594371337890625	-0.5586182250976562	0		3.35846337890625	-0.006726945877075195	0		4.8279521484375	0.03033062171936035	0		5.62882568359375	0.17190892028808594	0		-0.2595191345214844	5.91287841796875	0		
-0.027319480895996093	-0.0059539108276367185	0		0.4938863830566406	-2.298731689453125	0		-1.084073486328125	0.02248959732055664	0		-0.6499344482421875	-2.36835107421875	0		1.591749267578125	-0.5625167846679687	0		3.348796630859375	-0.013508734703063964	0		4.8232734375	0.022528707504272463	0		5.629119140625	0.1721852722167969	0		-0.25924755859375	5.912904296875	0		
0.003086169958114624	-0.0032508111000061034	0		0.5301904907226562	-2.3100810546875	0		-1.07371044921875	0.02138595390319824	0		-0.6395949096679687	-2.37644482421875	0		1.5951795654296874	-0.558486572265625	0		3.37838623046875	0.006277935981750488	0		4.82772314453125	0.02961848831176758	0		5.6323037109375	0.18620732116699218	0		-0.2779467468261719	5.91813134765625	0		
-0.019535026550292968	0.0010209900140762328	0		0.4806831359863281	-2.299507568359375	0		-1.069344482421875	0.024344415664672853	0		-0.67315576171875	-2.371067626953125	0		1.5985682373046874	-0.5544623413085937	0		3.35356005859375	-0.008357979774475098	0		4.82314306640625	0.03779542541503906	0		5.6296298828125	0.17268165588378906	0		-0.2436825714111328	5.92278271484375	0		
0.010784305572509766	0.0037175939083099363	0		0.5349599609375	-2.30505908203125	0		-1.0750020751953124	0.029407907485961914	0		-0.6388763427734375	-2.376426513671875	0		1.598867919921875	-0.5544109497070312	0		3.38798681640625	0.004361003875732422	0		4.83833349609375	0.028748991012573243	0		5.6369697265625	0.17271759033203124	0		-0.22357545471191406	5.9165830078125	0		
-0.019006113052368163	0.0010569610595703126	0		0.5332218627929688	-2.307010986328125	0		-1.082837158203125	0.022490787506103515	0		-0.6436344604492188	-2.380367919921875	0		1.5960755615234374	-0.55833203125	0		3.364163818359375	-0.0013008209466934203	0		4.8385732421875	0.02885600471496582	0		5.63714306640625	0.17292552185058593	0		-0.22443505859375	5.9176064453125	0		
0.0011072980165481568	-0.006144543170928955	0		0.529399169921875	-2.3119453125	0		-1.08264794921875	0.022484516143798827	0		-0.657369384765625	-2.37721630859375	0		1.5962752685546875	-0.5582905883789062	0		3.35537548828125	8.685309886932373E-4	0		4.82385986328125	0.03811557769775391	0		5.63014794921875	0.17330441284179687	0		-0.24329600524902345	5.92281884765625	0		
-0.021709373474121094	-0.0018889479637145996	0		0.5066532897949219	-2.304680908203125	0		-1.066574462890625	0.016304758071899413	0		-0.6472767944335938	-2.385324462890625	0		1.5964237060546875	-0.55825439453125	0		3.359343017578125	-0.015107756614685058	0		4.81791259765625	0.030270553588867186	0		5.63794921875	0.14040914916992187	0		-0.27435079956054687	5.91415673828125	0		
0.011443327903747559	0.003763753890991211	0		0.5377990112304688	-2.30299853515625	0		-1.058409912109375	0.023208629608154296	0		-0.666126953125	-2.383125	0		1.5995653076171874	-0.554255615234375	0		3.362711669921875	0.010917073249816894	0		4.83306591796875	0.03619076156616211	0		5.633228515625	0.18740560913085938	0		-0.24028981018066406	5.919794921875	0		
-0.01450981044769287	0.00404573392868042	0		0.5378768310546875	-2.30298681640625	0		-1.06925732421875	0.03331475830078125	0		-0.64503857421875	-2.382354736328125	0		1.5996185302734376	-0.5542290649414062	0		3.3305771484375	-0.0056887569427490235	0		4.83413232421875	0.03825200271606445	0		5.6374814453125	0.1735972900390625	0		-0.24230613708496093	5.92181689453125	0		
0.00441968584060669	-0.0031545751094818114	0		0.533868408203125	-2.30693505859375	0		-1.0823690185546875	0.022442956924438477	0		-0.649056640625	-2.387317626953125	0		1.5965882568359375	-0.5581746826171875	0		3.340656494140625	0.0012479109764099122	0		4.8241376953125	0.03842123031616211	0		5.63035400390625	0.17390541076660157	0		-0.2574912414550781	5.9109765625	0		
-0.01856529426574707	0.0010907609462738038	0		0.5298111572265625	-2.311885986328125	0		-1.082398193359375	0.02243169593811035	0		-0.6531023559570313	-2.391281494140625	0		1.5965653076171875	-0.5581571655273437	0		3.3605517578125	-0.005928685188293457	0		4.83494775390625	0.0233569393157959	0		5.63456103515625	0.16178878784179687	0		-0.2575836181640625	5.91097412109375	0		
